#!OML:ASF E:\motion texture\Top Level 1\Subject 1\Session 1\male.ASF
:FULLY-SPECIFIED
:DEGREES
127
root 14.828 17.6554 3.48874 113.738 -82.3571 -106.341
lowerback -2.19096 2.07885 5.18348
upperback -1.6998 2.6354 2.13943
thorax -0.386515 1.25999 -0.651721
lowerneck -12.8176 -1.88722 -3.7235
upperneck 19.3513 -2.35018 1.69021
head 8.1773 -1.29227 0.918058
rclavicle -1.58888e-014 -4.57205e-015
rhumerus -15.9565 -11.2918 -76.2347
rradius 29.6238
rwrist 6.86782
rhand -17.3803 -34.7682
rfingers 7.12502
rthumb 8.86833 -64.5618
lclavicle -1.58888e-014 -4.57205e-015
lhumerus -36.4594 37.0746 68.514
lradius 13.815
lwrist -43.7274
lhand -14.7233 22.8048
lfingers 7.12502
lthumb 11.4316 52.4732
rfemur -2.68508 4.00459 29.7593
rtibia 39.0992
rfoot -6.09118 -3.61958
rtoes -9.03495
lfemur -27.8015 -4.59552 -9.46233
ltibia 20.1218
lfoot 1.65967 4.05016
ltoes 2.15599
128
root 14.6778 17.6698 3.51925 115.464 -82.5589 -108.284
lowerback -2.10351 2.01328 4.95223
upperback -1.68728 2.56128 2.03799
thorax -0.431243 1.22554 -0.632309
lowerneck -12.8639 -1.87157 -3.72015
upperneck 19.5187 -2.32581 1.64801
head 8.24053 -1.28739 0.905359
rclavicle 2.33215e-014 3.09607e-014
rhumerus -15.6686 -10.3353 -76.8044
rradius 30.3273
rwrist 6.15416
rhand -17.6848 -38.4161
rfingers 7.12502
rthumb 8.5745 -68.222
lclavicle 2.33215e-014 3.09607e-014
lhumerus -34.6396 35.4645 71.165
lradius 14.0448
lwrist -42.6685
lhand -14.7469 23.2424
lfingers 7.12502
lthumb 11.4088 52.912
rfemur -3.74256 3.69304 29.0849
rtibia 41.3565
rfoot -3.27818 -3.56184
rtoes -7.22163
lfemur -27.0064 -4.47096 -10.0629
ltibia 20.2169
lfoot 1.28361 3.78391
ltoes 2.56616
129
root 14.5291 17.6842 3.5497 117.838 -82.8561 -110.862
lowerback -2.02852 1.946 4.60358
upperback -1.68243 2.48645 1.90227
thorax -0.47986 1.19193 -0.582238
lowerneck -12.9191 -1.85542 -3.72611
upperneck 19.7006 -2.30113 1.61654
head 8.31069 -1.28224 0.897714
rclavicle 1.23464e-015 -7.7526e-015
rhumerus -15.397 -9.32988 -77.3895
rradius 31.0335
rwrist 5.45275
rhand -17.9162 -42.2749
rfingers 7.12502
rthumb 8.3512 -72.0898
lclavicle 1.23464e-015 -7.7526e-015
lhumerus -32.8271 33.4013 73.8933
lradius 14.3917
lwrist -41.2242
lhand -14.7514 23.7374
lfingers 7.12502
lthumb 11.4045 53.4072
rfemur -4.86568 3.39113 28.2746
rtibia 43.5546
rfoot -0.160111 -3.57852
rtoes -5.058
lfemur -26.1757 -4.38265 -10.8
ltibia 20.2066
lfoot 0.868184 3.60743
ltoes 2.7636
130
root 14.3816 17.6983 3.58057 121.015 -83.2322 -114.224
lowerback -1.96222 1.87855 4.15551
upperback -1.69577 2.41262 1.73029
thorax -0.544149 1.15942 -0.513645
lowerneck -12.9794 -1.83966 -3.74414
upperneck 19.9081 -2.27671 1.59188
head 8.39078 -1.27798 0.894234
rclavicle -2.0686e-015 3.57812e-015
rhumerus -15.147 -8.53753 -77.9201
rradius 31.5208
rwrist 5.03366
rhand -18.0064 -44.1517
rfingers 7.12502
rthumb 8.26412 -73.97
lclavicle -2.0686e-015 3.57812e-015
lhumerus -31.1265 31.0402 76.5274
lradius 14.8207
lwrist -39.5956
lhand -14.7034 24.1738
lfingers 7.12502
lthumb 11.4508 53.8411
rfemur -6.03222 3.10296 27.3425
rtibia 45.6933
rfoot 3.04044 -3.64051
rtoes -2.74825
lfemur -25.3207 -4.3304 -11.6697
ltibia 20.1081
lfoot 0.431312 3.52533
ltoes 2.81905
131
root 14.2355 17.7119 3.61126 124.881 -83.6381 -118.26
lowerback -1.89691 1.80783 3.65668
upperback -1.72592 2.33434 1.53576
thorax -0.625666 1.12479 -0.439697
lowerneck -13.0297 -1.81884 -3.75609
upperneck 20.1206 -2.24637 1.56224
head 8.47064 -1.27139 0.888794
rclavicle 1.65364e-014 7.65321e-015
rhumerus -14.9058 -8.07571 -78.3739
rradius 31.736
rwrist 5.10925
rhand -17.744 -43.321
rfingers 7.12502
rthumb 8.51743 -73.1292
lclavicle 1.65364e-014 7.65321e-015
lhumerus -29.5446 28.3553 79.06
lradius 15.3479
lwrist -37.753
lhand -14.6159 24.5045
lfingers 7.12502
lthumb 11.5352 54.1671
rfemur -7.22323 2.82903 26.3606
rtibia 47.7867
rfoot 6.0204 -3.80548
rtoes -0.824117
lfemur -24.4573 -4.2971 -12.6128
ltibia 19.947
lfoot -0.0135263 3.50285
ltoes 2.82985
132
root 14.0915 17.7248 3.64129 129.243 -84.0521 -122.777
lowerback -1.83397 1.7276 3.13505
upperback -1.76686 2.24199 1.33043
thorax -0.717025 1.08319 -0.363799
lowerneck -13.0772 -1.79526 -3.76263
upperneck 20.3403 -2.21137 1.52103
head 8.55234 -1.26372 0.879089
rclavicle 3.19608e-015 3.8763e-015
rhumerus -14.6703 -7.82522 -78.7819
rradius 31.7508
rwrist 5.45103
rhand -17.3404 -40.375
rfingers 7.12502
rthumb 8.90688 -70.167
lclavicle 3.19608e-015 3.8763e-015
lhumerus -28.0924 25.3611 81.4714
lradius 15.9871
lwrist -35.7229
lhand -14.5081 24.7048
lfingers 7.12502
lthumb 11.6392 54.3616
rfemur -8.42758 2.55119 25.373
rtibia 49.8504
rfoot 8.4699 -4.12862
rtoes 0.326002
lfemur -23.5969 -4.28135 -13.5935
ltibia 19.7417
lfoot -0.455806 3.49252
ltoes 2.8775
133
root 13.949 17.7369 3.67054 133.845 -84.4334 -127.526
lowerback -1.76917 1.636 2.63651
upperback -1.81262 2.13213 1.13358
thorax -0.813399 1.03258 -0.29178
lowerneck -13.1022 -1.76556 -3.76357
upperneck 20.543 -2.16463 1.45699
head 8.62378 -1.25263 0.862254
rclavicle -2.74571e-015 -4.57205e-015
rhumerus -14.4382 -7.77392 -79.1431
rradius 31.5941
rwrist 6.05336
rhand -16.7373 -35.6375
rfingers 7.12502
rthumb 9.48882 -65.4039
lclavicle -2.74571e-015 -4.57205e-015
lhumerus -26.7941 22.1724 83.701
lradius 16.7139
lwrist -33.6849
lhand -14.4352 24.707
lfingers 7.12502
lthumb 11.7094 54.3597
rfemur -9.63298 2.26407 24.4419
rtibia 51.8942
rfoot 10.182 -4.68857
rtoes 0.529057
lfemur -22.7303 -4.27052 -14.5505
ltibia 19.4939
lfoot -0.887292 3.47121
ltoes 2.93528
